<svg width="74" height="53" viewBox="0 0 74 53" fill="none" xmlns="http://www.w3.org/2000/svg">
<rect x="0.947754" width="42.2985" height="31.7238" fill="white"/>
<g clip-path="url(#clip0_273_195)">
<path d="M67.3288 13.4572L61.9088 7.34326H52.514C49.7148 7.34326 47.4553 9.52994 47.4553 12.2388V26.9254C47.4553 29.6343 49.7148 31.821 52.514 31.821H62.6314V25.707H53.773V13.4572H67.3288Z" fill="white"/>
<path d="M57.5723 16.5249V22.6389H66.4307V31.8207H72.7484V22.0297V16.5249H57.5723Z" fill="#FF681E"/>
<rect x="47.4554" y="26.3813" width="4.51672" height="5.43949" fill="white"/>
</g>
<g clip-path="url(#clip1_273_195)">
<path d="M16.1429 40.28V36.666H4.10495C2.4397 36.666 1.09546 37.9586 1.09546 39.5598V48.241C1.09546 49.8422 2.4397 51.1347 4.10495 51.1347H10.1239V47.5208H4.85398V40.28H16.1429Z" fill="white"/>
<path d="M7.11456 42.0933V45.7072H12.3845V51.1346H16.1431V45.3471V42.0933H7.11456Z" fill="#FF681E"/>
</g>
<path d="M30.797 44.096C32.2555 44.7905 33.1236 45.8496 33.1236 47.5511C33.1236 49.9124 31.4742 51.666 26.9946 51.666H18.5391V37.0815H27.1683C31.4915 37.0815 32.7242 38.9567 32.7242 40.9013C32.7242 42.516 31.8909 43.2799 30.797 43.8355V44.096ZM26.7342 40.4325H22.8971V42.9674H26.7342C28.019 42.9674 28.5399 42.4292 28.5399 41.7173C28.5399 41.0055 28.019 40.4325 26.7342 40.4325ZM26.8731 48.3151C28.1579 48.3151 28.7135 47.5858 28.7135 46.8392C28.7135 46.0753 28.1579 45.4502 26.8731 45.4502H22.8971V48.3151H26.8731ZM34.2671 51.666V37.0815H38.625V48.0199H46.6118V51.666H34.2671ZM58.1776 37.0815V40.7277H52.8647V51.666H48.5067V40.7277H43.1938V37.0815H58.1776ZM65.78 52.1522C60.9358 52.1348 58.5745 50.5722 58.6613 46.9087H62.5853C62.6547 48.0199 63.5923 48.7144 65.78 48.7318C67.7593 48.7491 68.7316 48.1414 68.7316 47.308C68.7316 46.6656 68.2802 46.1795 66.7523 45.9364L64.9118 45.6412C62.1512 45.1725 59.026 44.7037 59.026 41.1617C59.026 38.3143 61.3525 36.5954 65.8147 36.5954C69.8601 36.5954 72.6902 37.8108 72.6381 41.8041H68.7489C68.558 40.7103 67.6725 40.0158 65.7105 40.0158C63.9916 40.0158 63.2103 40.554 63.2103 41.3701C63.2103 41.943 63.6096 42.4639 64.8597 42.6723L66.405 42.9501C69.2698 43.4362 73.0548 43.6446 73.0548 47.4817C73.0548 50.5548 70.6241 52.1695 65.78 52.1522Z" fill="white"/>
<defs>
<clipPath id="clip0_273_195">
<rect width="25.2936" height="24.4777" fill="white" transform="translate(47.4553 7.34326)"/>
</clipPath>
<clipPath id="clip1_273_195">
<rect width="15.0475" height="14.4687" fill="white" transform="translate(1.09546 36.666)"/>
</clipPath>
</defs>
</svg>
