<svg width="74" height="53" viewBox="0 0 74 53" fill="none" xmlns="http://www.w3.org/2000/svg">
<rect x="0.947754" width="42.2985" height="31.7238" fill="#001856"/>
<g clip-path="url(#clip0_273_175)">
<path d="M67.3288 13.4573L61.9088 7.34332H52.514C49.7148 7.34332 47.4553 9.53 47.4553 12.2389V26.9255C47.4553 29.6343 49.7148 31.821 52.514 31.821H62.6314V25.707H53.773V13.4573H67.3288Z" fill="#001856"/>
<path d="M57.5723 16.5252V22.6392H66.4307V31.821H72.7484V22.0299V16.5252H57.5723Z" fill="#FF681E"/>
<rect x="47.4554" y="26.3815" width="4.51672" height="5.43949" fill="#001856"/>
</g>
<g clip-path="url(#clip1_273_175)">
<path d="M16.1429 40.2801V36.6661H4.10495C2.4397 36.6661 1.09546 37.9587 1.09546 39.5599V48.2411C1.09546 49.8423 2.4397 51.1349 4.10495 51.1349H10.1239V47.5209H4.85398V40.2801H16.1429Z" fill="#001856"/>
<path d="M7.11456 42.0935V45.7075H12.3845V51.1349H16.1431V45.3474V42.0935H7.11456Z" fill="#FF681E"/>
</g>
<path d="M30.797 44.0961C32.2555 44.7906 33.1236 45.8497 33.1236 47.5513C33.1236 49.9126 31.4742 51.6662 26.9946 51.6662H18.5391V37.0817H27.1683C31.4915 37.0817 32.7242 38.9568 32.7242 40.9014C32.7242 42.5161 31.8909 43.2801 30.797 43.8357V44.0961ZM26.7342 40.4326H22.8971V42.9676H26.7342C28.019 42.9676 28.5399 42.4293 28.5399 41.7175C28.5399 41.0056 28.019 40.4326 26.7342 40.4326ZM26.8731 48.3152C28.1579 48.3152 28.7135 47.586 28.7135 46.8394C28.7135 46.0755 28.1579 45.4504 26.8731 45.4504H22.8971V48.3152H26.8731ZM34.2671 51.6662V37.0817H38.625V48.02H46.6118V51.6662H34.2671ZM58.1776 37.0817V40.7278H52.8647V51.6662H48.5067V40.7278H43.1938V37.0817H58.1776ZM65.78 52.1523C60.9358 52.135 58.5745 50.5723 58.6613 46.9089H62.5853C62.6547 48.02 63.5923 48.7145 65.78 48.7319C67.7593 48.7493 68.7316 48.1416 68.7316 47.3082C68.7316 46.6658 68.2802 46.1796 66.7523 45.9366L64.9118 45.6414C62.1512 45.1726 59.026 44.7038 59.026 41.1619C59.026 38.3144 61.3525 36.5955 65.8147 36.5955C69.8601 36.5955 72.6902 37.8109 72.6381 41.8043H68.7489C68.558 40.7104 67.6725 40.0159 65.7105 40.0159C63.9916 40.0159 63.2103 40.5542 63.2103 41.3702C63.2103 41.9432 63.6096 42.4641 64.8597 42.6724L66.405 42.9502C69.2698 43.4364 73.0548 43.6447 73.0548 47.4818C73.0548 50.555 70.6241 52.1697 65.78 52.1523Z" fill="#001856"/>
<defs>
<clipPath id="clip0_273_175">
<rect width="25.2936" height="24.4777" fill="white" transform="translate(47.4553 7.34332)"/>
</clipPath>
<clipPath id="clip1_273_175">
<rect width="15.0475" height="14.4687" fill="white" transform="translate(1.09546 36.6661)"/>
</clipPath>
</defs>
</svg>
