<svg width="48" height="48" viewBox="0 0 48 48" fill="none" xmlns="http://www.w3.org/2000/svg">
<g clip-path="url(#clip0_245_187)">
<path d="M4 14V12C2.89543 12 2 12.8954 2 14H4ZM26 14H28C28 12.8954 27.1046 12 26 12V14ZM26 18V16C25.4696 16 24.9609 16.2107 24.5858 16.5858C24.2107 16.9609 24 17.4696 24 18H26ZM4 16H26V12H4V16ZM24 14V38H28V14H24ZM6 34V14H2V34H6ZM26 20H36V16H26V20ZM42 26V34H46V26H42ZM28 38L28 18L24 18L24 38H28ZM37.4142 39.4142C36.6332 40.1953 35.3668 40.1953 34.5858 39.4142L31.7574 42.2426C34.1005 44.5858 37.8995 44.5858 40.2426 42.2426L37.4142 39.4142ZM34.5858 36.5858C35.3668 35.8047 36.6332 35.8047 37.4142 36.5858L40.2426 33.7574C37.8995 31.4142 34.1005 31.4142 31.7574 33.7574L34.5858 36.5858ZM13.4142 39.4142C12.6332 40.1953 11.3668 40.1953 10.5858 39.4142L7.75736 42.2426C10.1005 44.5858 13.8995 44.5858 16.2426 42.2426L13.4142 39.4142ZM10.5858 36.5858C11.3668 35.8047 12.6332 35.8047 13.4142 36.5858L16.2426 33.7574C13.8995 31.4142 10.1005 31.4142 7.75736 33.7574L10.5858 36.5858ZM37.4142 36.5858C37.8051 36.9767 38 37.4851 38 38H42C42 36.4676 41.4138 34.9285 40.2426 33.7574L37.4142 36.5858ZM38 38C38 38.5149 37.8051 39.0233 37.4142 39.4142L40.2426 42.2426C41.4138 41.0715 42 39.5324 42 38H38ZM32 36H26V40H32V36ZM34.5858 39.4142C34.1949 39.0233 34 38.5149 34 38H30C30 39.5324 30.5862 41.0715 31.7574 42.2426L34.5858 39.4142ZM34 38C34 37.4851 34.1949 36.9767 34.5858 36.5858L31.7574 33.7574C30.5862 34.9285 30 36.4676 30 38H34ZM10.5858 39.4142C10.1949 39.0233 10 38.5149 10 38H6C6 39.5324 6.58618 41.0715 7.75736 42.2426L10.5858 39.4142ZM10 38C10 37.4851 10.1949 36.9767 10.5858 36.5858L7.75736 33.7574C6.58618 34.9285 6 36.4676 6 38H10ZM26 36H16V40H26V36ZM13.4142 36.5858C13.8051 36.9767 14 37.4851 14 38H18C18 36.4676 17.4138 34.9285 16.2426 33.7574L13.4142 36.5858ZM14 38C14 38.5149 13.8051 39.0233 13.4142 39.4142L16.2426 42.2426C17.4138 41.0715 18 39.5324 18 38H14ZM42 34C42 35.1046 41.1046 36 40 36V40C43.3137 40 46 37.3137 46 34H42ZM36 20C39.3137 20 42 22.6863 42 26H46C46 20.4772 41.5228 16 36 16V20ZM2 34C2 37.3137 4.68629 40 8 40V36C6.89543 36 6 35.1046 6 34H2Z" fill="#001856"/>
<path d="M7 8C7 6.89543 7.89543 6 9 6V6C12.3137 6 15 8.68629 15 12V14H13C9.68629 14 7 11.3137 7 8V8Z" stroke="#FF681E" stroke-width="4" stroke-linejoin="round"/>
<path d="M23 8C23 6.89543 22.1046 6 21 6V6C17.6863 6 15 8.68629 15 12V14H17C20.3137 14 23 11.3137 23 8V8Z" stroke="#FF681E" stroke-width="4" stroke-linejoin="round"/>
</g>
<defs>
<clipPath id="clip0_245_187">
<rect width="48" height="48" fill="white"/>
</clipPath>
</defs>
</svg>
