<svg width="48" height="48" viewBox="0 0 48 48" fill="none" xmlns="http://www.w3.org/2000/svg">
<path d="M26 38V6H4V34C4 36.2091 5.79086 38 8 38V38M26 38L26 18H36C40.4183 18 44 21.5817 44 26V34C44 36.2091 42.2091 38 40 38V38M26 38H32M26 38H16" stroke="#001856" stroke-width="4" stroke-linejoin="round"/>
<path d="M38.8284 35.1716C39.6095 35.9526 40 36.9763 40 38C40 39.0237 39.6095 40.0474 38.8284 40.8284C37.2663 42.3905 34.7337 42.3905 33.1716 40.8284C32.3905 40.0474 32 39.0237 32 38C32 36.9763 32.3905 35.9526 33.1716 35.1716C34.7337 33.6095 37.2663 33.6095 38.8284 35.1716Z" stroke="#FF681E" stroke-width="4"/>
<path d="M14.8284 35.1716C15.6095 35.9526 16 36.9763 16 38C16 39.0237 15.6095 40.0474 14.8284 40.8284C13.2663 42.3905 10.7337 42.3905 9.17157 40.8284C8.39052 40.0474 8 39.0237 8 38C8 36.9763 8.39052 35.9526 9.17157 35.1716C10.7337 33.6095 13.2663 33.6095 14.8284 35.1716Z" stroke="#FF681E" stroke-width="4"/>
</svg>
